<svg xmlns="http://www.w3.org/2000/svg" xmlns:xlink="http://www.w3.org/1999/xlink" id="Ebene_1" width="200" height="200" x="0" y="0" enable-background="new 0 0 200 200" version="1.1" viewBox="0 0 200 200" xml:space="preserve"><rect width="199" height="198" x="1" fill="#FFF"/><g><path fill="#EEE" d="M83.372,71.371c0,7.2-5.657,12.687-12.686,12.687S58,78.571,58,71.371s5.657-12.686,12.686-12.686 S83.372,64.171,83.372,71.371z M83.372,126.742c0,7.199-5.657,12.685-12.686,12.685S58,133.941,58,126.742 c0-7.2,5.657-12.686,12.686-12.686S83.372,119.542,83.372,126.742z"/><path fill="#EEE" d="M123.83,31.429C133.601,47.886,142,66.4,142,100c0,33.599-8.399,52.113-18.17,68.57h-17.828 c12-18.515,18.17-37.542,18.17-68.57c0-31.029-6.17-50.057-18.17-68.571H123.83z"/></g></svg>